<?xml version="1.0" encoding="UTF-8"?>
<svg width="500" height="500" version="1.1" viewBox="0 0 500 500" xmlns="http://www.w3.org/2000/svg">
 <rect x="20" y="20" width="460" height="460" fill="#fff"/>
 <path d="m0 0v500h500v-500h-500zm60.924 126.5h174.3v32.957h-69.82v214.05h-34.656v-214.05h-69.82v-32.957zm208.27 0h34.654 60.986c14.723 0 27.69 3.1715 38.902 9.5137 11.212 6.2289 19.877 15.061 25.992 26.5 6.2289 11.439 9.3438 24.689 9.3438 39.752s-3.1148 28.313-9.3438 39.752c-6.1157 11.325-14.78 20.103-25.992 26.332s-24.179 9.3418-38.902 9.3418h-60.986v95.812h-34.654v-247zm34.654 32.957v85.279h62.176c7.4747 0 14.044-1.7567 19.707-5.2676 5.6626-3.5108 10.022-8.4938 13.08-14.949 3.1711-6.4554 4.7559-13.873 4.7559-22.254 0-8.494-1.5848-15.968-4.7559-22.424-3.0578-6.4554-7.4174-11.438-13.08-14.949-5.6626-3.6241-12.232-5.4355-19.707-5.4355h-62.176z" fill="#0061be"/>
</svg>
